<?xml version="1.0" encoding="utf-8"?>
<!-- Generator: Adobe Illustrator 23.0.1, SVG Export Plug-In . SVG Version: 6.00 Build 0)  -->
<svg version="1.1" id="Слой_1" xmlns="http://www.w3.org/2000/svg" xmlns:xlink="http://www.w3.org/1999/xlink" x="0px" y="0px"
	 viewBox="0 0 50 50" style="enable-background:new 0 0 50 50;" xml:space="preserve">
<path d="M49.4,27.8l-0.8-1c-0.8-1.1-0.9-2.7,0-3.8l0.8-1c1.1-1.5,0.7-3.5-0.8-4.5c-0.1-0.1-0.2-0.1-0.4-0.2L47,16.5
	c-1.3-0.7-1.9-2-1.7-3.4l0.2-1.3c0.3-1.8-0.9-3.5-2.7-3.7c-0.1,0-0.3,0-0.4,0L41.1,8c-1.4-0.1-2.7-1-3.1-2.3l-0.4-1.2
	c-0.5-1.7-2.3-2.7-4.1-2.2c-0.1,0-0.3,0.1-0.4,0.1l-1.2,0.5c-1.3,0.6-2.8,0.2-3.8-0.8l-0.9-1c-1.2-1.3-3.3-1.5-4.7-0.3
	c-0.1,0.1-0.2,0.2-0.3,0.3l-0.9,1C20.5,3.1,19,3.5,17.7,3l-1.2-0.5c-1.7-0.7-3.6,0.1-4.3,1.8C12.1,4.4,12,4.5,12,4.6l-0.3,1.2
	c-0.4,1.3-1.6,2.3-3,2.4L7.3,8.3C5.5,8.4,4.1,10,4.2,11.7c0,0.1,0,0.3,0.1,0.4l0.2,1.3c0.3,1.4-0.4,2.8-1.7,3.4l-1.1,0.6
	c-1.6,0.9-2.2,2.8-1.3,4.4c0.1,0.1,0.1,0.2,0.2,0.3l0.8,1c0.8,1.1,0.9,2.7,0,3.8l-0.8,1c-1.1,1.5-0.7,3.5,0.8,4.5
	c0.1,0.1,0.2,0.1,0.3,0.2L3,33.5c1.3,0.7,1.9,2,1.7,3.4l-0.2,1.3c-0.3,1.8,0.9,3.5,2.7,3.7c0.1,0,0.3,0,0.4,0L8.9,42
	c1.4,0.1,2.7,1,3.1,2.3l0.4,1.2c0.5,1.7,2.3,2.7,4.1,2.2c0.1,0,0.3-0.1,0.4-0.1l1.2-0.5c1.3-0.6,2.8-0.2,3.8,0.8l0.9,1
	c1.2,1.3,3.3,1.5,4.7,0.3c0.1-0.1,0.2-0.2,0.3-0.3l0.9-1c0.9-1.1,2.5-1.4,3.8-0.9l1.2,0.5c1.7,0.7,3.6-0.1,4.3-1.8
	c0.1-0.1,0.1-0.2,0.1-0.4l0.3-1.2c0.4-1.4,1.6-2.3,3-2.4l1.3-0.1c1.8-0.1,3.2-1.6,3.1-3.4c0-0.1,0-0.3-0.1-0.4l-0.2-1.3
	c-0.3-1.4,0.4-2.8,1.7-3.4l1.1-0.6c1.6-0.9,2.2-2.8,1.3-4.4C49.5,28,49.4,27.9,49.4,27.8L49.4,27.8z"/>
</svg>
