<svg xmlns="http://www.w3.org/2000/svg" xmlns:xlink="http://www.w3.org/1999/xlink" width="20" height="18" viewBox="0 0 20 18">
  <path  d="M1.25,8.591v7.225a1.229,1.229,0,0,0,1.25,1.2H8.75V8.591H1.25Zm17.5-4.817H14.8a4.82,4.82,0,0,0,.7-0.538,2.452,2.452,0,0,0,0-3.542,2.714,2.714,0,0,0-3.666,0c-0.543.523-1.98,2.656-1.781,4.081H9.955c0.2-1.425-1.24-3.557-1.781-4.081a2.717,2.717,0,0,0-3.666,0,2.455,2.455,0,0,0,0,3.542,4.908,4.908,0,0,0,.7.538H1.25A1.23,1.23,0,0,0,0,4.978V6.784a0.614,0.614,0,0,0,.625.6H8.75V4.978h2.5V7.387h8.125A0.614,0.614,0,0,0,20,6.784V4.978A1.229,1.229,0,0,0,18.75,3.774ZM8.676,3.734a0.425,0.425,0,0,1-.231.04A6.254,6.254,0,0,1,5.394,2.387a1.28,1.28,0,0,1,0-1.845,1.368,1.368,0,0,1,1.894,0C8.13,1.359,8.967,3.444,8.676,3.734Zm2.878,0.04a0.4,0.4,0,0,1-.23-0.04c-0.291-.29.546-2.375,1.389-3.192a1.4,1.4,0,0,1,1.894,0,1.277,1.277,0,0,1,0,1.845A6.253,6.253,0,0,1,11.554,3.774Zm-0.3,4.817v8.429H17.5a1.228,1.228,0,0,0,1.25-1.2V8.591h-7.5Z"/>
</svg>
