<?xml version="1.0" encoding="utf-8"?>
<!-- Generator: Adobe Illustrator 23.0.1, SVG Export Plug-In . SVG Version: 6.00 Build 0)  -->
<svg version="1.1" id="Слой_1" xmlns="http://www.w3.org/2000/svg" xmlns:xlink="http://www.w3.org/1999/xlink" x="0px" y="0px"
	 viewBox="0 0 23 18" style="enable-background:new 0 0 23 18;" xml:space="preserve">
<path d="M4.9,0C2.2,0,0,2.2,0,4.9l0,0c0,0,0,0,0,0c0,2.7,2.2,4.9,5,4.9c0,0,0,0,0,0c2.7,0,5-2.2,5-4.9C9.9,2.2,7.7,0,4.9,0z M5,6.9
	c-1.1,0-2.1-0.9-2.1-2c0-1.1,0.9-2,2.1-2c1.1,0,2.1,0.9,2.1,2C7,6,6.1,6.9,5,6.9z"/>
<path d="M5.9,17.5C5.5,18,4.7,18,4.2,17.6l0,0C3.7,17.2,3.6,16.5,4,16l13-15.4c0.4-0.5,1.2-0.6,1.7-0.2c0.5,0.4,0.6,1.2,0.2,1.7l0,0
	L5.9,17.5z"/>
<path d="M18,8.2c-2.7,0-5,2.2-5,4.9c0,2.7,2.2,4.9,5,4.9v0c0,0,0,0,0,0c2.7,0,5-2.2,5-4.9C23,10.4,20.8,8.2,18,8.2z M18,15.1
	c-1.1,0-2.1-0.9-2.1-2c0-1.1,0.9-2,2.1-2h0c1.1,0,2.1,0.9,2.1,2S19.2,15.1,18,15.1z"/>
</svg>
