<svg xmlns="http://www.w3.org/2000/svg" xmlns:xlink="http://www.w3.org/1999/xlink" width="24" height="16" viewBox="0 0 24 16">
  <path id="Forma_1_copy_2" data-name="Forma 1 copy 2" class="cls-1" d="M23.772,14.144a12.209,12.209,0,0,0-2.382-3.193C19.381,8.79,19.651,9.14,22.071,5.4c1.474-2.276,2.063-3.666,1.878-4.261C23.774,0.578,22.69.727,22.69,0.727l-3.6.024a0.723,0.723,0,0,0-.466.1,1.164,1.164,0,0,0-.318.448,26.1,26.1,0,0,1-1.333,3.259c-1.606,3.16-2.249,3.327-2.511,3.13C13.847,7.228,14,5.847,14,4.867c0-3.064.4-4.34-.781-4.67A5.4,5.4,0,0,0,11.536,0,6.771,6.771,0,0,0,8.543.357c-0.411.232-.727,0.752-0.534,0.781a1.541,1.541,0,0,1,1.065.62,4.581,4.581,0,0,1,.357,1.892s0.213,3.6-.5,4.054c-0.487.307-1.154-.321-2.586-3.188A28.865,28.865,0,0,1,5.06,1.423,1.257,1.257,0,0,0,4.763.96,1.368,1.368,0,0,0,4.209.7l-3.427.024A1.063,1.063,0,0,0,.078,1a0.99,0.99,0,0,0-.014.707S2.748,8.982,5.786,12.649c2.787,3.362,5.95,3.142,5.95,3.142H13.17a1.131,1.131,0,0,0,.654-0.332,1.358,1.358,0,0,0,.2-0.73s-0.029-2.229.865-2.557,2.011,2.154,3.209,3.108a2.035,2.035,0,0,0,1.594.562l3.2-.051A1.028,1.028,0,0,0,23.772,14.144Z"/>
</svg>
